<svg id="Layer_1" data-name="Layer 1" xmlns="http://www.w3.org/2000/svg" width="1169.16" height="609.56" viewBox="0 0 1169.16 609.56"><defs><style>.cls-1{fill:#fff;}</style></defs><title>underskift</title><path class="cls-1" d="M22.66,445.88c9-14,17.71-28.24,26.43-42.45s18-27.64,26.76-41.6c18-28.56,35.06-57.74,52.47-86.67,34.73-57.72,69.31-115.53,103.2-173.76C250.83,68.24,269.71,34.8,290,2.24L287.44.73q-4.77,8.17-9.54,16.36l2.59,1.51c3.06-5.51,6.36-10.91,9.54-16.36L287.44.73c-10.37,18.48-20.7,37-30,56.05s-17.07,38.62-25,58.19q-24,59.25-46,119.23c-29.32,80.05-55.61,161.21-78.25,243.4-5.76,20.91-11.54,41.88-15.75,63.17-2,10.08-3.59,20.24-4.58,30.46-.52,5.37-.87,10.75-1,16.14-.11,4.4-.72,9.54.34,13.85,1.38,5.69,7.91,9.4,13.59,8.07,6.43-1.51,11.5-7.36,15-12.55A140.93,140.93,0,0,0,128,575.35c4.2-9.4,10-18.08,14.57-27.3s9-18.8,13.47-28.19c2.11-4.38,4.87-8.73,6.62-13.26a22.09,22.09,0,0,0,.71-3.26c.81-3.49,2.69-6.75,4.15-10,8.17-18.21,14.6-37.13,20.3-56.24,12.1-40.54,24.57-82.88,22.64-125.63-.68-15-3-32.14-12.48-44.43s-26-16.78-39.61-8.4c-14.67,9-25.66,23-35.31,36.92-11.29,16.33-22.21,32.88-31.75,50.3Q84,359.24,77.81,373.19a1.52,1.52,0,0,0,2,2.06c1.75-.89,6.92-4.09,4.57-6.77-2.58-2.94-5.85,3.18-6.62,4.71a1.51,1.51,0,0,0,2,2.06A84.77,84.77,0,0,0,100.17,362c1.45-1.28-.67-3.39-2.12-2.13a82.23,82.23,0,0,1-19.71,12.79l2.06,2c.64-1.28,2.37-3.17,1.84-4.1s-3,1.61-3.9,2.05l2.06,2A404.58,404.58,0,0,1,107.66,324c9.4-15,19.25-30.52,30.89-43.92,11.39-13.12,29.28-30,47.69-19.59,14,8,18.28,25.19,20.33,40,5.56,40.19-6.25,81.78-17.08,120.08-5.23,18.52-10.79,37-17.75,54.92q-2.7,7-5.69,13.84c-1.68,3.82-4.26,7.77-5.34,11.79-2.46,9.16-7.5,17.7-11.57,26.35-8.22,17.45-17.87,34.12-26.06,51.54a101.23,101.23,0,0,1-12,19.16,24.37,24.37,0,0,1-8.84,7.32c-7,3-12.12-1.73-12.42-8.56-1.8-41,11.23-82.28,22-121.3,21.14-76.47,45.44-152,72.4-226.66q20.1-55.64,42-110.57c14.88-37.43,30-74.47,49.21-109.93C280.25,19.69,285.14,11,290,2.24A1.5,1.5,0,0,0,287.44.73c-3.18,5.44-6.48,10.84-9.54,16.36a1.5,1.5,0,0,0,2.59,1.51c3.2-5.44,6.36-10.9,9.54-16.36A1.5,1.5,0,0,0,287.44.73C251.57,58.2,218.81,117.65,184.23,175.9S115,292.46,79.59,350.24c-9.53,15.56-20.06,30.44-29.6,46-9.89,16.1-19.73,32.23-29.92,48.13-1.05,1.63,1.55,3.14,2.59,1.52Z"/><path class="cls-1" d="M1.72,465c-4.08,2.38-.13,7.86,3.89,6,2.63-1.25,4.26-5.06,5.73-7.35q5.13-8,10.21-15.95c1-1.63-1.56-3.14-2.59-1.51l-7.77,12.16c-1.3,2-2.58,4.05-3.9,6.06l-1,1.53a2.44,2.44,0,0,1-3.11,1.7A1.5,1.5,0,0,0,1.72,465Z"/><path class="cls-1" d="M246.1,187.18l7.76-24.29a1.51,1.51,0,0,0-1.45-1.9c-41.46,1.1-76.4,32.07-99.8,63.81-24.42,33.15-39.4,72.54-49,112.31-5.46,22.58-9.74,45.71-10.87,69a191.65,191.65,0,0,0,1.26,35c1.08,8,4,16.23,12.91,17.92,7.83,1.48,16-2.46,22.44-6.57A219.42,219.42,0,0,0,156,431.79c18-15.93,34.36-33.67,50.76-51.19q57-60.93,109.08-126.28a1.5,1.5,0,0,0-2.12-2.12,441.92,441.92,0,0,0-92,109.54Q212.4,377.51,204.39,394q-3.63,7.5-7,15.13c-2.1,4.8-5,10-5.75,15.27-1.4,9.17,6.19,12.68,13.93,9.43,5.63-2.37,10.81-6.3,16-9.51l18.51-11.49,82.45-51.15-2-.54c8.8,11.61-6.42,26.25-6.66,38.67-.26,13.91,14.15,15.22,24.81,17.32a352.46,352.46,0,0,0,100,5.08c1.91-.17,1.93-3.17,0-3A348.91,348.91,0,0,1,343.21,415c-6.72-1.25-15.93-1.75-21.82-5.49-6.42-4.09-4.82-12.64-2.62-18.68,3.55-9.74,11.87-21.17,4.3-31.16a1.54,1.54,0,0,0-2.06-.54l-65.62,40.71-33.65,20.88c-4.87,3-9.66,6.33-14.68,9.08-2.72,1.48-7.15,3.75-10.28,1.85-4.06-2.47-2-8.28-.79-11.46,15.63-41.13,40.4-80,68.47-113.7a439.63,439.63,0,0,1,51.42-52.14l-2.12-2.12q-42.81,53.7-89,104.55Q201.8,382,178,406.42c-15.42,15.78-31.55,31.48-50.2,43.44-7.54,4.84-21.51,11.21-27.85,1.16-2.91-4.59-3.18-10.82-3.68-16.07-.55-5.76-.81-11.54-.83-17.32-.09-23.17,3.63-46.21,8.53-68.8,8.2-37.81,20.83-75.22,41.47-108.16,23-36.67,60.83-75.46,107-76.68l-1.45-1.9-7.76,24.29c-.58,1.85,2.31,2.64,2.9.8Z"/><path class="cls-1" d="M680,139.76c1.17-19.95-13.94-37.11-32-43.65-23.4-8.5-49.76-1.69-72.15,6.75-42,15.82-77.92,44.22-107.81,77.22a515.78,515.78,0,0,0-79.87,118.24c-11.21,22.84-20.31,47-24.59,72.14-3.69,21.74-4.78,45.61,2.67,66.7,5.66,16,17.12,31.83,35.16,34.1,23.39,2.94,43.68-17.14,59.17-31.87C497.8,404,527,361.22,555.9,319.08c14.55-21.18,29-42.8,38.27-66.9,3.3-8.53,10.07-22.37,3.86-31-5.56-7.75-16.18-7.72-24.31-4.83-10.2,3.64-19.94,9.6-29.07,15.35a249.63,249.63,0,0,0-25.85,18.69,258,258,0,0,0-75.65,104.05,240.81,240.81,0,0,0-10,31.48c-2.05,8.44-4.83,19.35,3.11,25.66,8.58,6.82,22.51,5.25,32.29,2.54,12.26-3.4,23.6-9.85,34.6-16.1a452.46,452.46,0,0,0,62.91-43.13q15.06-12.31,29-25.87l-2.35-1.82-33.41,43.93c-3.22,4.24-8,9.33-5.49,15.06,1.68,3.84,5.86,5.75,9.69,6.74,6.45,1.66,13.51,1.06,20.09.83a245.85,245.85,0,0,0,24.54-2.1,248.14,248.14,0,0,0,50.59-12.48c1.8-.65,1-3.55-.8-2.89a241,241,0,0,1-86.45,14.58c-4.87-.1-13.3-.84-15.14-6.44-1.22-3.73,2.3-7.49,4.37-10.22s4.37-5.75,6.56-8.63l28-36.86c1.05-1.39-1.18-3-2.36-1.82a454.47,454.47,0,0,1-55.46,45.89Q523,382.9,507.77,391.88c-10.64,6.26-21.55,12.68-33.13,17.05-10.38,3.93-27.07,8.08-36.65.09-8.72-7.27-1.67-24.18,1-33.21a248.07,248.07,0,0,1,24-55.32,253.59,253.59,0,0,1,83.83-86.62c8.7-5.44,18-11.21,27.72-14.64,5.71-2,12.2-2.84,17.6.52,6.85,4.25,5.57,11.65,3.66,18.31-6.62,23.12-18.88,44.14-32,64.09C538.11,341,511.46,380,480.33,414.69c-7.78,8.67-15.9,17-24.41,25s-17.43,16-27.6,21.95c-9.85,5.72-21.53,9.08-32.69,5.28-8.84-3-15.65-9.8-20.43-17.63-10.62-17.38-12.17-38.6-11-58.46,1.42-23.59,7.7-46.66,16.49-68.52,16.87-42,42.15-81.72,70.12-117.19,25.58-32.43,55.67-62,91.53-82.94,18.44-10.74,38.51-19.38,59.38-24.07,22.5-5.06,48.36-4.18,64.91,14,6.93,7.62,11,17.29,10.34,27.66-.11,1.93,2.89,1.92,3,0Z"/><path class="cls-1" d="M918.49,138.29a1133.4,1133.4,0,0,0-232.26,59.28c-17.29,6.43-34.63,13-51.37,20.8-15,7-32.27,15.72-43.08,28.72-10,12.07,1.22,24.28,12.08,30.42,15,8.47,31.43,14.35,47.78,19.44C685.48,307.49,721,314.31,752.56,331c15,7.91,29.88,18.19,38.49,33.16,9.33,16.23,6.93,34.31-3.06,49.61s-25.06,27-39.88,37.39a278,278,0,0,1-48,26.82c-36,15.7-77.58,25.74-116.91,19.62-8.94-1.39-21.22-2.81-26.07-11.57-4.08-7.37-2-16.72,1-24.07,6-14.72,17.76-27.73,29.4-38.33,24.33-22.15,54.7-36.58,84.87-49,7.51-3.09,15.08-6.05,22.65-9,1.78-.69,1-3.59-.8-2.89-30.8,11.95-62,24.39-89.31,43.29-13.3,9.2-25.61,20-35.69,32.64-8.76,11-18.24,24.76-17.31,39.55,1.11,17.56,19.11,20.72,33.44,22.66,20,2.71,40.31,1.22,60-2.67a276.73,276.73,0,0,0,104.15-44.51c24.72-17.23,57.91-44.33,49.18-78.66C790.61,342.94,753.25,326,725,315.79c-34.79-12.57-71.77-18.74-105.64-33.93-8.26-3.69-17.43-7.59-23.74-14.28-3.11-3.31-5.55-7.53-4.73-12.21.91-5.19,5.34-8.84,9.13-12.1,15.08-12.93,33.38-21.42,51.6-29A1121.26,1121.26,0,0,1,888.71,146q15.25-2.62,30.57-4.84c1.91-.28,1.1-3.17-.79-2.9Z"/><path class="cls-1" d="M786.39,268.94c-42.55,29.48-86.93,60.46-114.77,105.2-4.18,6.72-16.51,22.74-7.45,30,7.41,5.94,20-.7,27.22-3.78,22.84-9.78,42.82-24.9,61.75-40.75,22.67-19,44.3-39.36,69.34-55.27l-2.05-2.05a244.22,244.22,0,0,0-19.11,42.32c-2.3,6.77-4.9,13.9-6,21-.6,4.05-.21,8.84,3.83,10.95,4.63,2.42,11.81.35,16.64-.59a124.34,124.34,0,0,0,22.47-6.8c13.77-5.54,26.66-12.94,39.32-20.63,7.41-4.5,17.55-11.5,26.71-8.28,6.54,2.29,11.88,12.25,5.38,17.38-1.28,1,.16,2.76,1.46,2.51,29.51-5.77,59-10.82,88.83-4.5,12.37,2.62,24.66,5.78,37.41,5.1a87.13,87.13,0,0,0,30.23-7.39c45.8-20,67.25-67.83,80.11-113.13,7.58-26.7,14.1-53.89,18.1-81.37,1-6.51,1.76-13,2.37-19.59.54-5.73,1.92-12.38-.28-17.91-3.21-8-12.77-8.34-19.84-5.94-21,7.12-33.27,31.69-42.11,50.2a399.67,399.67,0,0,0-26.62,73.73A407.86,407.86,0,0,0,1067,327.76c-.29,10.27-.45,23.79,8.79,30.61,6.6,4.88,16.87,5.09,21.61-2.33,1-1.63-1.55-3.14-2.59-1.52-3,4.65-8.76,5.21-13.61,3.4-5.77-2.15-8.83-7.53-10.2-13.27-2.53-10.53-.93-22.54-.19-33.22a405.16,405.16,0,0,1,11.66-72.17,396.16,396.16,0,0,1,24.16-68c8.75-18.88,19.7-42.38,39.57-51.84,4-1.93,9.26-3.26,13.66-1.8,7.54,2.5,6.2,11.57,5.69,17.82a401.47,401.47,0,0,1-5.46,39.82,678.9,678.9,0,0,1-17.2,70.89c-12.53,41.82-33.47,85.06-75.38,104a83,83,0,0,1-34.71,7.71c-14.07-.11-27.49-4.71-41.29-6.85-27.17-4.21-54.51,1-81.16,6.25l1.46,2.5c6.95-5.49,3.44-15.88-2.85-20.4-11.1-8-25.6,2.21-35.13,8-13.68,8.26-27.74,16.16-42.89,21.41a106.53,106.53,0,0,1-24.16,5.59c-2.38.24-3.45.29-5.72-.81-2.7-1.31-3.07-2.77-3-5.71.16-4,1.7-8.19,2.81-12a240.54,240.54,0,0,1,22.07-52,1.51,1.51,0,0,0-2-2.05c-39.3,25-70.08,61.21-110.05,85.19C700.8,393,690,398.48,678.71,402c-7.63,2.38-17.52,1.37-13.61-9.51,2.12-5.9,5.8-11.53,9.11-16.83,12.88-20.72,29.72-38.65,48-54.68,20.63-18.09,43.16-33.84,65.69-49.45,1.57-1.09.08-3.69-1.52-2.59Z"/><path class="cls-1" d="M934.81,193.65c1.72.34,2.88-.58,3.77-2,.19-.29.6-1.41.9-1.53.07,0,.19.06.25,0,.19.08.24.09.17,0a1.33,1.33,0,0,1-.16-1.35c-1.45,1.28.68,3.39,2.12,2.12,2-1.78-.38-3.87-2.35-3.8a3.16,3.16,0,0,0-2.67,1.57c-.28.43-.5.9-.77,1.33a2.42,2.42,0,0,1-.4.55c-.15.14-.21.13-.06.16-1.89-.37-2.7,2.52-.8,2.89Z"/></svg>
