<?xml version="1.0" standalone="no"?>
<!DOCTYPE svg PUBLIC "-//W3C//DTD SVG 20010904//EN"
 "http://www.w3.org/TR/2001/REC-SVG-20010904/DTD/svg10.dtd">
<svg version="1.0" xmlns="http://www.w3.org/2000/svg"
 width="614.000000pt" height="614.000000pt" viewBox="0 0 614.000000 614.000000"
 preserveAspectRatio="xMidYMid meet">
<metadata>
Created by potrace 1.11, written by Peter Selinger 2001-2013
</metadata>
<g transform="translate(0.000000,614.000000) scale(0.100000,-0.100000)"
fill="#000000" stroke="none">
<path d="M4800 4976 c-81 -41 -392 -201 -525 -271 -124 -65 -341 -177 -550
-285 -88 -45 -214 -111 -280 -145 -66 -34 -192 -100 -280 -145 -88 -46 -202
-105 -253 -132 l-93 -48 -740 0 c-803 0 -781 1 -807 -55 -9 -19 -12 -270 -12
-1016 0 -907 1 -993 17 -1019 9 -16 27 -33 40 -39 34 -15 1912 -15 1946 0 13
6 31 23 40 39 15 25 17 81 17 549 l0 521 195 0 195 0 0 -520 c0 -565 0 -563
55 -588 19 -9 261 -12 976 -12 869 0 953 1 979 17 16 9 33 27 39 40 8 17 11
240 11 718 l0 694 57 63 c32 35 83 90 114 123 30 33 80 87 110 119 30 33 62
68 72 78 13 14 17 35 17 88 0 83 -3 83 -79 -4 -30 -33 -102 -112 -160 -174
-57 -63 -111 -121 -118 -130 -10 -14 -12 23 -13 206 0 245 -5 269 -59 292 -18
7 -328 9 -987 8 -1041 -3 -973 0 -1002 -55 -9 -15 -12 -144 -12 -447 l0 -426
-195 0 -195 0 0 425 c0 307 -3 431 -12 450 -19 43 -56 55 -165 55 -54 0 -93 4
-87 9 5 4 92 51 194 103 383 197 508 262 615 318 61 31 182 94 270 140 88 46
219 113 290 150 72 37 207 107 300 155 94 48 173 90 177 94 3 3 -3 25 -15 48
l-22 42 -65 -33z m-2350 -1217 c-96 -50 -254 -131 -350 -181 -96 -50 -233
-121 -305 -158 -360 -187 -425 -220 -430 -220 -3 0 -5 146 -5 325 l0 325 633
0 632 0 -175 -91z m770 -879 l0 -970 -930 0 -930 0 2 586 3 586 40 22 c22 12
139 73 260 136 121 62 247 127 280 145 33 18 134 71 225 117 270 139 510 264
590 306 l75 40 193 1 192 1 0 -970z m2450 0 l0 -970 -930 0 -930 0 0 970 0
970 930 0 930 0 0 -970z"/>
</g>
</svg>
